# xmcd
#
# Track frame offsets: 
#        150
#        19445
#        40582
#        61090
#        80475
#        98487
#        117987
#        138130
#        158835
#        179532
#        199442
#        215147
#        236327
#        258890
#
# Disc length: 3817 seconds
#
# Revision: 3
# Processed by: cddbd v1.5.1PL0 Copyright (c) Steve Scherf et al.
# Submitted via: ExactAudioCopy v0.95b2
#
DISCID=bb0ee70e
DTITLE=BANDARI - 維也納森林情境Vienna Forest
DYEAR=2000
DGENRE=New Age
TTITLE0=碧翠絲-Beatrix
TTITLE1=春日-One Day In Spring
TTITLE2=愛之歌-Melody Of Love
TTITLE3=海王星-Neptune
TTITLE4=仙境-Fairyland
TTITLE5=幻想-Visions
TTITLE6=漫漫孤夜-Along In The Night
TTITLE7=滿天星-Starry Sky
TTITLE8=給妳的歌-My Song For You
TTITLE9=天堂之門-Heaven's Gate
TTITLE10=朝陽-Morning Sun
TTITLE11=憂鬱湖岸-Blue Lagoon
TTITLE12=雲海-Nebula
TTITLE13=巴賽隆納之夜-Nights Of Barcelona
EXTD=What a outstanding album!! YEAR: 2000
EXTT0=
EXTT1=
EXTT2=
EXTT3=
EXTT4=
EXTT5=
EXTT6=
EXTT7=
EXTT8=
EXTT9=
EXTT10=
EXTT11=
EXTT12=
EXTT13=
PLAYORDER=
